<svg width="24" height="24" viewBox="0 0 24 24" fill="none" xmlns="http://www.w3.org/2000/svg">
    <path d="m21.736 18.26-6.27-6.27 6.27-6.27a.806.806 0 0 0 0-1.127l-2.364-2.364a.806.806 0 0 0-1.126 0L11.99 8.5 5.72 2.244a.806.806 0 0 0-1.127 0L2.229 4.607a.806.806 0 0 0 0 1.126l6.27 6.27-6.27 6.27a.806.806 0 0 0 0 1.127l2.364 2.364a.811.811 0 0 0 .57.236.836.836 0 0 0 .57-.236l6.27-6.27 6.27 6.27a.81.81 0 0 0 .57.236.836.836 0 0 0 .571-.236l2.363-2.364c.279-.334.279-.834-.041-1.14z" fill="#666"/>
</svg>
