<svg width="24" height="24" viewBox="0 0 24 24" fill="none" xmlns="http://www.w3.org/2000/svg">
    <path d="M0 0h24v24H0z"/>
    <g clip-path="url(#iadl13pska)" fill="#C03">
        <path d="M21.332 1.92H2.668a1.745 1.745 0 0 0-1.209.496C1.14 2.73.96 3.155.96 3.597v13.864c-.001.22.042.437.128.64.085.203.21.387.37.543.158.156.346.28.554.364.208.085.43.13.656.13h6.696l-.345 1.196c-.093.25-.258.47-.476.631-.218.162-.48.257-.752.276H5.377a.43.43 0 0 0-.302.124.411.411 0 0 0 .003.59c.079.078.186.123.3.125H18.6a.436.436 0 0 0 .3-.125.414.414 0 0 0 .002-.59.422.422 0 0 0-.302-.124H16.21a1.435 1.435 0 0 1-.752-.276 1.378 1.378 0 0 1-.476-.63l-.345-1.197h6.696a1.754 1.754 0 0 0 1.21-.494 1.633 1.633 0 0 0 .497-1.183V3.597c.001-.442-.179-.867-.498-1.181a1.745 1.745 0 0 0-1.209-.496zM9.477 21.24c.166-.203.288-.437.36-.687l.41-1.423h3.528l.416 1.423c.072.25.194.484.36.687H9.477zm12.702-5.883v2.103c0 .221-.09.433-.25.59a.873.873 0 0 1-.604.248H2.668a.873.873 0 0 1-.605-.247.828.828 0 0 1-.25-.591v-2.103H22.18zm0-11.76v10.921H1.814V3.597c0-.221.09-.433.25-.59a.872.872 0 0 1 .604-.249h18.664a.872.872 0 0 1 .604.249c.16.157.25.369.25.59h-.007z"/>
        <path d="M20.924 3.494H2.979a.412.412 0 0 0-.29.112.392.392 0 0 0-.12.28V8.01c0 .106.043.207.12.282a.415.415 0 0 0 .579 0 .393.393 0 0 0 .12-.282V4.278h17.126v8.64H3.388V9.185a.393.393 0 0 0-.12-.281.415.415 0 0 0-.579 0 .393.393 0 0 0-.12.281v4.125a.383.383 0 0 0 .12.28.403.403 0 0 0 .29.111h17.945a.412.412 0 0 0 .288-.112.392.392 0 0 0 .12-.28V3.887a.384.384 0 0 0-.12-.28.404.404 0 0 0-.288-.112zM11.996 17.88a1.1 1.1 0 0 0 .604-.17c.18-.114.32-.277.404-.469a1.026 1.026 0 0 0-.225-1.15 1.106 1.106 0 0 0-1.178-.234c-.199.078-.368.213-.487.386a1.033 1.033 0 0 0 .128 1.325c.2.197.47.309.754.313zm-.212-1.051a.21.21 0 0 1 .038-.12.224.224 0 0 1 .339-.029.21.21 0 0 1-.041.33.224.224 0 0 1-.274-.033.21.21 0 0 1-.062-.148z"/>
    </g>
    <defs>
        <clipPath id="iadl13pska">
            <path  transform="translate(.96 1.92)" d="M0 0h22.08v20.16H0z"/>
        </clipPath>
    </defs>
</svg>
