<svg width="24" height="24" viewBox="0 0 24 24" fill="none" xmlns="http://www.w3.org/2000/svg">
    <path d="M0 0h24v24H0z"/>
    <g clip-path="url(#mtnr1javza)" fill="#C03">
        <path d="M21.878 1.92H2.122A1.17 1.17 0 0 0 .96 3.096v13.022a1.162 1.162 0 0 0 1.162 1.17H3.49l-.683 1.284a1.217 1.217 0 0 0 .52 1.655 1.177 1.177 0 0 0 1.633-.534L6.23 17.26h3.2l1.934 4.047a1.881 1.881 0 0 0 1.114.984c.22.078.451.117.684.116.272.007.542-.052.786-.17l1.265-.616a1.955 1.955 0 0 0 .889-2.611l-.828-1.737h4.3l.875 1.675a.383.383 0 0 1-.164.52.376.376 0 0 1-.499-.157l-.581-1.115a.396.396 0 0 0-.246-.212.437.437 0 0 0-.321.034.43.43 0 0 0-.178.575l.581 1.1a1.223 1.223 0 0 0 2.16-1.148l-.684-1.285h1.368a1.162 1.162 0 0 0 1.162-1.17V3.104a1.17 1.17 0 0 0-1.17-1.183zM3.544 18.969l.882-1.682h.847l-1.06 2.05a.361.361 0 0 1-.505.158.378.378 0 0 1-.164-.526zm5.845-6.228 1.271-.622a1.066 1.066 0 0 1 1.442.513l3.213 6.76a1.1 1.1 0 0 1-.505 1.463l-1.265.616a1.032 1.032 0 0 1-.82.047 1.088 1.088 0 0 1-.623-.553l-3.212-6.74a1.095 1.095 0 0 1 .499-1.484zm11.395 2.126a.527.527 0 0 0 .527-.533V4.012a.525.525 0 0 0-.527-.533H3.188a.533.533 0 0 0-.533.533v10.322a.533.533 0 0 0 .533.533h3.76a.43.43 0 0 0 0-.854H3.53v-9.68h16.933v9.68h-6.76l-.842-1.757a1.928 1.928 0 0 0-1.847-1.093c-.252.015-.497.08-.723.19l-1.271.623a1.948 1.948 0 0 0-.89 2.59l.89 1.873H2.122a.321.321 0 0 1-.314-.32V3.128a.321.321 0 0 1 .314-.32h19.756a.321.321 0 0 1 .314.32v12.99a.321.321 0 0 1-.314.32h-7.014l-.752-1.572h6.672z"/>
        <path d="M10.879 9.965a.397.397 0 0 0 .39-.397V7.463a.396.396 0 0 0-.39-.397.39.39 0 0 0-.39.397v2.105a.39.39 0 0 0 .39.397zM13.265 10.41a.397.397 0 0 0 .293-.137l.91-1.06a.396.396 0 0 0-.175-.632.37.37 0 0 0-.153-.017.349.349 0 0 0-.26.137l-.91 1.06a.397.397 0 0 0 .042.553c.07.063.16.097.253.096zM8.48 10.479a.382.382 0 0 0 .547 0 .396.396 0 0 0 0-.554l-.991-.985a.383.383 0 0 0-.547 0 .396.396 0 0 0 0 .554l.99.985zM13.948 19.475l-.882.431a.39.39 0 0 0-.177.52.382.382 0 0 0 .348.225.342.342 0 0 0 .165-.04l.888-.432a.39.39 0 0 0 .178-.52.376.376 0 0 0-.226-.204.37.37 0 0 0-.294.02zM11.214 13.583a.523.523 0 0 0 .143 0 .453.453 0 0 0 .185-.04.438.438 0 0 0 .098-.717.41.41 0 0 0-.146-.083.395.395 0 0 0-.328 0 .43.43 0 0 0-.198.574.424.424 0 0 0 .246.266zM11.74 15.038a.451.451 0 0 0 .253.225.435.435 0 0 0 .137 0 .458.458 0 0 0 .191-.04.444.444 0 0 0 .098-.72.422.422 0 0 0-.146-.087.45.45 0 0 0-.328 0 .436.436 0 0 0-.205.622zM12.937 16.965c.237 0 .43-.196.43-.438a.434.434 0 0 0-.43-.437.434.434 0 0 0-.431.437c0 .242.193.438.43.438zM13.6 18.605c.045.01.092.01.137 0a.458.458 0 0 0 .191-.04.472.472 0 0 0 .219-.254.437.437 0 0 0-.267-.554.452.452 0 0 0-.328 0 .41.41 0 0 0-.219.246.432.432 0 0 0 .267.602zM10.619 16.028a.458.458 0 0 0 .3-.123.438.438 0 0 0-.3-.745.41.41 0 0 0-.3.123.43.43 0 0 0 0 .609.416.416 0 0 0 .3.136zM11.794 17.048a.43.43 0 0 0-.428-.215.438.438 0 0 0-.205.781.396.396 0 0 0 .155.07.28.28 0 0 0 .11 0c.073 0 .146-.02.211-.055a.437.437 0 0 0 .157-.581zM12.253 18.51a.437.437 0 0 0-.22.827.43.43 0 0 0 .165.042.457.457 0 0 0 .287-.11.437.437 0 0 0 .034-.615.41.41 0 0 0-.266-.143zM3.571 16.076h.957a.39.39 0 0 0 0-.78h-.957a.39.39 0 1 0 0 .78z"/>
    </g>
    <defs>
        <clipPath id="mtnr1javza">
            <path transform="translate(.96 1.92)" d="M0 0h22.08v20.515H0z"/>
        </clipPath>
    </defs>
</svg>
