<svg width="24" height="24" viewBox="0 0 24 24" fill="none" xmlns="http://www.w3.org/2000/svg">
    <path  d="M0 0h24v24H0z"/>
    <g clip-path="url(#hgwpqark0a)" fill="#333">
        <path d="M15.84 13.428h-2.065a.466.466 0 0 0 0 .93h2.064a.393.393 0 0 1 .398.399v.857c0 .25-.317.364-.505.411l-3.01.749a3.525 3.525 0 0 1-.863.094 3.546 3.546 0 0 1-.883-.094l-2.996-.749c-.189-.047-.499-.162-.499-.411v-.857a.392.392 0 0 1 .391-.398h2.071a.465.465 0 1 0 0-.931h-2.07a1.35 1.35 0 0 0-1.31 1.349v5.02a.89.89 0 0 0 .884.896h8.824a.897.897 0 0 0 .884-.897v-5.04a1.35 1.35 0 0 0-1.316-1.328zm.397 3.406v2.908h-8.77v-2.908c.092.038.187.067.284.088l3.009.749c.355.089.72.132 1.086.128.366.003.73-.04 1.086-.128l3.009-.749c.1-.02.2-.05.296-.088z"/>
        <path d="M20.049 15.128V7.032a3.036 3.036 0 0 0-3.002-3.062h-2.213a6.181 6.181 0 0 0-1.16-.493V2.31a1.35 1.35 0 0 0-1.35-1.35h-.977a1.35 1.35 0 0 0-1.31 1.35v1.167a5.823 5.823 0 0 0-1.153.493h-2.2A3.036 3.036 0 0 0 3.67 7.032v8.096a.904.904 0 0 0-.789.917v4.817a2.172 2.172 0 0 0 2.166 2.179h13.627a2.172 2.172 0 0 0 2.159-2.18v-4.816a.904.904 0 0 0-.783-.917zM4.587 19.965a2.699 2.699 0 0 0 .722 2.064l.087.088h-.35a1.255 1.255 0 0 1-1.248-1.255v-4.783h1.106l-.317 3.886zm0-4.817V7.032a2.105 2.105 0 0 1 2.098-2.131h.917l-.242.243a7.42 7.42 0 0 0-1.95 4.5l-.425 5.484-.398.02zm13.627 4.89a1.805 1.805 0 0 1-.486 1.35 2.231 2.231 0 0 1-1.612.715H7.602a2.205 2.205 0 0 1-1.612-.701 1.754 1.754 0 0 1-.486-1.35l.85-10.321a6.294 6.294 0 0 1 2.8-4.864l.121-.074a5.107 5.107 0 0 1 2.584-.675 5.08 5.08 0 0 1 2.577.675c.038.027.078.05.122.067a6.327 6.327 0 0 1 2.806 4.87l.85 10.309zm.182 1.991a2.7 2.7 0 0 0 .729-2.064l-.324-3.886h1.106v4.783a1.255 1.255 0 0 1-1.241 1.255h-.35l.08-.088zm.729-6.901h-.392l-.458-5.505a7.42 7.42 0 0 0-1.95-4.48 6.118 6.118 0 0 0-.243-.242h.965a2.105 2.105 0 0 1 2.078 2.131v8.096zM12.763 3.26a6.746 6.746 0 0 0-.904-.067 6.746 6.746 0 0 0-.904.067v-.95a.398.398 0 0 1 .392-.399h1.018a.405.405 0 0 1 .398.398v.951z"/>
        <path d="M11.231 11.08a.877.877 0 0 0 .628.257.849.849 0 0 0 .62-.257l1.195-1.2a.897.897 0 0 0 0-1.262l-1.208-1.214a.858.858 0 0 0-.96-.195.884.884 0 0 0-.288.195L10.01 8.618a.904.904 0 0 0 0 1.262l1.221 1.2zm-.533-1.848 1.16-1.167 1.14 1.187-1.14 1.154-1.16-1.174zM11.859 13.428a.465.465 0 1 0 .426.288.458.458 0 0 0-.426-.288z"/>
    </g>
    <defs>
        <clipPath id="hgwpqark0a">
            <path  transform="translate(2.88 .96)" d="M0 0h17.951v22.08H0z"/>
        </clipPath>
    </defs>
</svg>
